<svg xmlns="http://www.w3.org/2000/svg" width="1600" height="1000" viewBox="0 0 1600 1000" fill="none">
<rect width="1600" height="1000" fill="#f4f1ec"/>

  <rect x="120" y="180" width="1360" height="720" rx="24" fill="#ffffff" stroke="#e2dcd1" stroke-width="1.5"/>
  <rect x="120" y="180" width="1360" height="56" rx="24" fill="#f4f1ec"/>
  <rect x="120" y="212" width="1360" height="24" fill="#f4f1ec"/>
  <circle cx="160" cy="208" r="7" fill="#e8825f"/>
  <circle cx="184" cy="208" r="7" fill="#e8c35f"/>
  <circle cx="208" cy="208" r="7" fill="#7fc28f"/>
  <rect x="440" y="200" width="320" height="16" rx="8" fill="#e2dcd1"/>
  <text x="200" y="320" font-family="Georgia, serif" font-size="46" font-weight="600" fill="#1c1917">Solo Brand</text>
  
    <circle cx="420" cy="560" r="120" fill="#9a6dd4" opacity="0.5"/>
    <circle cx="420" cy="560" r="80" fill="#1c1917"/>
    <text x="200" y="380" font-family="Georgia, serif" font-size="56" font-weight="600" fill="#1c1917">Maya Rivera</text>
    <text x="200" y="430" font-family="Georgia, serif" font-size="22" font-style="italic" fill="#9a6dd4">Designer · Consultant</text>
    <rect x="200" y="470" width="380" height="16" rx="8" fill="#1c1917" opacity="0.5"/>
    <rect x="200" y="500" width="320" height="16" rx="8" fill="#1c1917" opacity="0.4"/>
    <rect x="200" y="560" width="180" height="48" rx="24" fill="#9a6dd4"/>
    <rect x="700" y="380" width="740" height="500" rx="16" fill="#efe6df"/>
    <rect x="740" y="420" width="660" height="80" rx="12" fill="#ffffff"/>
    <rect x="740" y="520" width="320" height="160" rx="12" fill="#9a6dd4" opacity="0.2"/>
    <rect x="1080" y="520" width="320" height="160" rx="12" fill="#ffffff"/>
    <rect x="740" y="700" width="660" height="140" rx="12" fill="#1c1917" opacity="0.06"/>
    
  
</svg>
